DataType=double
version=3
OpenSimVersion=4.5.2-2025-05-03-6a4c6ec41
endheader
time	q	/jointset/head_joint/q/speed
0	0	0
0.001	0	0
0.002	0	0
0.003	0	0
0.004	0	0
0.005	4.474880901859877e-06	0.008949744200278491
0.006	1.63428854983838e-05	0.0147862183060024
0.007	3.404208232546918e-05	0.02061210572245574
0.008	5.721346077639073e-05	0.02573056002701747
0.009000000000000001	8.527209060645705e-05	0.03038658925510693
0.01	0.0001177567970670439	0.03458269587660553
0.011	0.0001542360293506256	0.03837562518729346
0.012	0.0001943253348029993	0.04180282801276
0.013	0.0002376775418509535	0.04490141554274085
0.01400000000000001	0.0002884551904274192	0.05665368185932717
0.01500000000000001	0.0003492952115735248	0.06502612109831683
0.01600000000000001	0.0004183823689607062	0.07314792189861662
0.01700000000000001	0.0004951295341909978	0.08034610665134514
0.01800000000000001	0.000578746333390012	0.08688716281207377
0.01900000000000001	0.0006685865544871557	0.0927929259657134
0.02000000000000001	0.0007640519761461793	0.09813754180725255
0.02100000000000001	0.0008646080060218392	0.1029741223734103
0.02200000000000001	0.0009697722114215832	0.1073538747276633
0.02300000000000001	0.001083585262663736	0.1202717800351601
0.02400000000000001	0.001208574274322156	0.1297057515959071
0.02500000000000002	0.001342825042221949	0.1387952560837955
0.02600000000000002	0.001485661234663118	0.1468765669051491
0.02700000000000002	0.001636212063341255	0.1542244982097911
0.02800000000000002	0.001793758812519522	0.1608683803848025
0.02900000000000002	0.001957637877658559	0.1668891052212723
0.03000000000000002	0.002127255692399394	0.1723458570133634
0.03100000000000002	0.002302076619075546	0.1772953086240211
0.03200000000000002	0.002486093315933438	0.1907373612025919
0.03300000000000002	0.002681789559850109	0.2006543567966687
0.03400000000000002	0.002887212016651565	0.2101897487114113
0.03500000000000002	0.003101649012323511	0.218683399076594
0.03600000000000003	0.003324197825917324	0.2264133526453314
0.03700000000000003	0.003554110878505642	0.2334118480967365
0.03800000000000003	0.003790698465614431	0.2397623954306874
0.03900000000000003	0.004033343408624715	0.2455265360721154
0.04000000000000003	0.004281488697258523	0.2507630650414195
0.04100000000000003	0.004539107633572732	0.2644737941665767
0.04200000000000003	0.004808666453770438	0.2746427858406112
0.04300000000000003	0.005088195917700582	0.2844150424104674
0.04400000000000003	0.005376969917328302	0.2931318208713797
0.04500000000000003	0.005674072623171622	0.3010724220802064
0.04600000000000003	0.005974269660529626	0.2993204717303458
0.04700000000000003	0.006273942242277801	0.3000235129257499
0.04800000000000004	0.006574025249631561	0.3001413213292183
0.04900000000000004	0.00687431168340859	0.3004303649743911
0.05000000000000004	0.007179351562016498	0.3096481922946281
0.05100000000000004	0.007492064790277144	0.3157770340976529
0.05200000000000004	0.007810906810410424	0.3219057519338609
0.05300000000000004	0.008135529673224499	0.3273386967222426
0.05400000000000004	0.008465358944860838	0.3323185491013392
0.05500000000000004	0.008799942163310443	0.3368465716518834
0.05600000000000004	0.00913885520760248	0.3409781837579699
0.05700000000000004	0.009481719823362581	0.3447496990480104
0.05800000000000004	0.009828193951750674	0.3481971948197981
0.05900000000000005	0.01018244426633495	0.3603020408563758
0.06000000000000005	0.01054711095472638	0.3690299014651053
0.06100000000000005	0.01092038125035905	0.3775092215012448
0.06200000000000005	0.01130166978939679	0.3850663567407877
0.06300000000000004	0.01169018733066296	0.3919671975288038
0.06400000000000004	0.01208528822893607	0.3982330448656759
0.06500000000000004	0.01248637432327622	0.4039375661273677
0.06600000000000004	0.01289291062872762	0.4091334456576106
0.06700000000000005	0.01330441391506927	0.4138715083787068
0.06800000000000005	0.01372492369344234	0.4271463943025989
0.06900000000000005	0.01415696559653349	0.4369357124634958
0.07000000000000005	0.01459862365060332	0.4463786584460291
0.07100000000000005	0.0150492194982209	0.4548112644143637
0.07200000000000005	0.01550788009753375	0.4625081301270033
0.07300000000000005	0.01597388427694231	0.4694983957338789
0.07400000000000005	0.01644656579667061	0.4758627845161365
0.07500000000000005	0.0169253282963843	0.4816603318009585
0.07600000000000005	0.01740515832335968	0.4779978348559408
0.07700000000000005	0.01788712723539444	0.4859380935227877
0.07800000000000006	0.01837527757468779	0.4903606650768714
0.07900000000000006	0.01886801175655652	0.4951057606619165
0.08000000000000006	0.01936519969327685	0.499268157281022
0.08100000000000006	0.0198663964227694	0.5031233304583904
0.08200000000000006	0.02037128243891962	0.5066467161059358
0.08300000000000006	0.02087954895861517	0.5098843242740531
0.08400000000000006	0.02139092239814457	0.512860543575513
0.08500000000000006	0.02190515447328055	0.5156015842665317
0.08600000000000006	0.02242649615106051	0.5270797209252996
0.08700000000000006	0.02295766329969746	0.5352524873628857
0.08800000000000006	0.02349691110307293	0.543240998648623
0.08900000000000007	0.02404371518675091	0.5503650182782135
0.09000000000000007	0.02459734103642886	0.5568845038492476
0.09100000000000007	0.02515719209831506	0.5628154182431649
0.09200000000000007	0.02572271423221901	0.5682266256140999
0.09300000000000007	0.02629341191143763	0.573166488552144
0.09400000000000007	0.02686883725889084	0.5776819435258127
0.09500000000000007	0.02745306144538658	0.5907641320720628
0.09600000000000007	0.02804863844029928	0.600387515754078
0.09700000000000007	0.02864920273613	0.6007387143360697
0.09800000000000007	0.02925118039027935	0.6032142268744369
0.09900000000000007	0.02985528053049214	0.6049836781588529
0.1000000000000001	0.03046115905746718	0.606770993449155
0.1010000000000001	0.03106875076565828	0.6084100338988369
0.1020000000000001	0.03167793481261588	0.6099556647664139
0.1030000000000001	0.03228861693678076	0.6114061824695236
0.1040000000000001	0.03290518252663444	0.6217225730593195
0.1050000000000001	0.03353046941904785	0.628848753349308
0.1060000000000001	0.03416284226275695	0.6358944478435591
0.1070000000000001	0.03480187521931508	0.642168952917176
0.1080000000000001	0.03544692239383824	0.6479228601854174
0.1090000000000001	0.03609746694771516	0.6531636900710245
0.1100000000000001	0.03675302643748186	0.6579527123104489
0.1110000000000001	0.03741316981823865	0.6623314540936796
0.1120000000000001	0.03807750720137994	0.6663407006570136
0.1130000000000001	0.03875016190269044	0.6789660578038088
0.1140000000000001	0.03943373477780345	0.6881770054140692
0.1150000000000001	0.04012190247307679	0.6881556801362098
0.1160000000000001	0.04081112894097792	0.6902945465828259
0.1170000000000001	0.04150215737178908	0.6917595989499837
0.1180000000000001	0.04219467427987905	0.6932714953681504
0.1190000000000001	0.04288864196979367	0.6946611569770037
0.1200000000000001	0.04358396431635723	0.6959808034233341
0.1210000000000001	0.04428056926214764	0.697226350472946
0.1220000000000001	0.04497838725745164	0.6984068977679464
0.1230000000000001	0.04568183068502214	0.7084771929856063
0.1240000000000001	0.04639376044463159	0.7153795285868241
0.1250000000000001	0.04711256220633562	0.7222211702639441
0.1260000000000001	0.04783782894195401	0.7283094511081931
0.1270000000000001	0.04856893167077669	0.7338931338407326
0.1280000000000001	0.04930536873888462	0.7389781088218428
0.1290000000000001	0.05004667133718006	0.7436241752046743
0.1300000000000001	0.05078794577782817	0.7389217937459573
0.1310000000000001	0.05152589491124207	0.7369735739098369
0.1320000000000001	0.05226621383611121	0.7436613674571341
0.1330000000000001	0.053011871253218	0.7476505375265208
0.1340000000000001	0.05376161153978799	0.7518270904613046
0.1350000000000001	0.05451528516262966	0.7555171947385781
0.1360000000000001	0.05527251128794937	0.7589320815855461
0.1370000000000001	0.05603300756289219	0.762057481265354
0.1380000000000001	0.05679650362514746	0.7649316445562392
0.1390000000000001	0.05756275906890082	0.7675762335547259
0.1400000000000001	0.05833155566635613	0.7700139421135375
0.1410000000000001	0.05910717123394129	0.7812141471721213
0.1420000000000001	0.05989234570396119	0.789131709587092
0.1430000000000001	0.06068535579399199	0.7968853565717761
0.1440000000000001	0.06148569639333569	0.8037926995803925
0.1450000000000001	0.06228817532717346	0.8011620173192048
0.1460000000000001	0.06308929318166501	0.8010705463892759
0.1470000000000001	0.06389007147786316	0.8004829022246137
0.1480000000000001	0.06469038594296314	0.8001428861748062
0.1490000000000001	0.06549038453670432	0.79985116090982
0.1500000000000001	0.06629460930931842	0.8085952274968472
0.1510000000000001	0.06710605440524717	0.8142917793680118
0.1520000000000001	0.06792322130369755	0.8200388102570635
0.1530000000000001	0.06874580825673561	0.8251318674504582
0.1540000000000001	0.06957328079750541	0.8298099667307776
0.1550000000000001	0.07040522241889816	0.8340700113465264
0.1560000000000001	0.0712412409477907	0.8379637659246925
0.1570000000000001	0.07208098657377031	0.8415241910926533
0.1580000000000001	0.07291966762534649	0.8358346214943592
0.1590000000000001	0.07375855495212773	0.8419367408951036
0.1600000000000001	0.0746018705287378	0.8446911039844885
0.1610000000000001	0.07544817815110616	0.8479208208834459
0.1620000000000001	0.07629749286678829	0.8507052790294303
0.1630000000000001	0.07714950022953643	0.8533061046708437
0.1640000000000001	0.07800399809289406	0.8556862707010591
0.1650000000000001	0.0788607831941769	0.8578805717754376
0.1660000000000001	0.07971967681611257	0.8599033039659976
0.1670000000000001	0.08058051595363419	0.8617715955499422
0.1680000000000001	0.08144315334478877	0.86349980441598
0.1690000000000001	0.08231193038458819	0.8740508690071574
0.1700000000000001	0.08318964433455217	0.8813735899544812
0.1710000000000001	0.08407014863660826	0.8796315625051729
0.1720000000000001	0.08495006641562185	0.8802005464245134
0.1730000000000001	0.08583028416689374	0.8802315061045429
0.1740000000000001	0.08671061743103134	0.8804315719644857
0.1750000000000001	0.08759114468770231	0.880619490675107
0.1760000000000001	0.08847187442114947	0.8808365249902981
0.1770000000000001	0.08935282877440655	0.8810687296844384
0.1780000000000001	0.0902384979112877	0.890266074039157
0.1790000000000001	0.09113181397858464	0.8963625608371425
0.1800000000000001	0.092031226516944	0.9024589925686651
0.1810000000000001	0.09293638610419287	0.9078566363982705
0.1820000000000001	0.09384671563425757	0.9127988582511896
0.1830000000000001	0.09476176019321475	0.9172866760237974
0.1840000000000001	0.09567661820422967	0.9124257634088131
0.1850000000000001	0.09658799056785194	0.9103153952010951
0.1860000000000001	0.09749709451204479	0.9078889337462561
0.1870000000000001	0.09840845304610156	0.9148245664191617
0.1880000000000001	0.09932528858773627	0.9188429277837091
0.1890000000000001	0.1002462468256967	0.9230699432618423
0.1900000000000001	0.1011711712127989	0.9267752108788091
0.1910000000000001	0.102099654215903	0.9301871616795815
0.1920000000000001	0.1030313946100602	0.9332899805844045
